<?xml version="1.0" encoding="UTF-8" standalone="no"?>
<!-- Created with Inkscape (http://www.inkscape.org/) -->

<svg
   width="109.51809mm"
   height="113.21161mm"
   viewBox="0 0 109.51809 113.21161"
   version="1.1"
   id="svg251"
   inkscape:version="1.2.2 (732a01da63, 2022-12-09)"
   sodipodi:docname="icon.svg"
   xmlns:inkscape="http://www.inkscape.org/namespaces/inkscape"
   xmlns:sodipodi="http://sodipodi.sourceforge.net/DTD/sodipodi-0.dtd"
   xmlns="http://www.w3.org/2000/svg"
   xmlns:svg="http://www.w3.org/2000/svg">
  <sodipodi:namedview
     id="namedview253"
     pagecolor="#ffffff"
     bordercolor="#000000"
     borderopacity="0.25"
     inkscape:showpageshadow="2"
     inkscape:pageopacity="0.0"
     inkscape:pagecheckerboard="0"
     inkscape:deskcolor="#d1d1d1"
     inkscape:document-units="mm"
     showgrid="false"
     inkscape:zoom="0.69130191"
     inkscape:cx="460.00162"
     inkscape:cy="529.43583"
     inkscape:window-width="1920"
     inkscape:window-height="974"
     inkscape:window-x="-11"
     inkscape:window-y="-11"
     inkscape:window-maximized="1"
     inkscape:current-layer="layer1" />
  <defs
     id="defs248" />
  <g
     inkscape:label="Layer 1"
     inkscape:groupmode="layer"
     id="layer1"
     transform="translate(50.548998,-8.4586254)">
    <path
       style="fill:#8484f2;fill-opacity:1;stroke-width:0.264583"
       d="m -1.52809,121.14656 c -6.54006,-1.19822 -8.1198,-1.58667 -11.64167,-2.8627 -3.55067,-1.28646 -5.57121,-2.17813 -7.77703,-3.43203 -3.02585,-1.55873 -5.20464,-3.1785 -7.00834,-4.4293 -5.8308,-4.04465 -12.37747,-11.634702 -15.75359,-18.264342 -1.18035,-2.00872 -2.21421,-4.37233 -2.89708,-6.22402 -13.84577,-37.659987 10.12239,-74.101149 50.75301,-77.1647825 7.74215,-0.894122 14.86091,0.307936 21.44449,1.4961085 8.46276,1.519942 9.83998,1.729537 13.22917,2.0133 8.18245,0.685084 13.25497,-0.184441 19.94474,-3.4189065 0.72587,-0.350955 -1.06668,1.8851445 -2.9022,3.6203095 -5.81478,5.496893 -11.02675,6.939902 -23.26908,6.442387 -18.47676,-0.750876 -11.4444,5.46416 -14.03706,32.052957 -0.22704,2.32833 -0.584,5.95974 -0.79326,8.06979 -0.20925,2.11005 -0.45994,4.908017 -0.55708,6.217707 -1.50795,20.33066 -28.21738,22.92219 -32.00199,3.10505 -2.19995,-11.519477 9.24467,-22.168237 19.94236,-18.555567 4.6757,1.57901 8.40845,-3.467438 9.58516,-12.958539 2.80458,-18.214662 -29.57791,-2.261794 -35.19552,4.418593 -15.27608,16.140396 -10.36425,44.627053 9.60665,55.714673 23.72056,13.169382 51.39649,-3.57654 52.25518,-31.61814 0.53993,-9.723506 -8.1186,-15.38244 -15.04772,-21.020203 12.09938,-3.992424 27.91255,-4.235107 31.95185,12.408276 5.09539,41.271326 -19.99882,59.786599 -42.50078,64.076879 -5.66739,0.96831 -12.35702,1.12639 -17.33021,0.3125 z M 11.56879,8.6821335 c 0,-0.07276 -0.0595,-0.132291 -0.13229,-0.132291 -0.0728,0 -0.1323,0.05953 -0.1323,0.132291 0,0.07276 0.0595,0.132292 0.1323,0.132292 0.0728,0 0.13229,-0.05953 0.13229,-0.132292 z"
       id="path244-2-1-6"
       sodipodi:nodetypes="csccccccsssssssssccscccccsssss" />
  </g>
</svg>
